<?xml version="1.0" encoding="utf-8"?>
<!-- Uploaded to: SVG Repo, www.svgrepo.com, Generator: SVG Repo Mixer Tools -->
<svg width="102.83" height="130" version="1.1" viewBox="0 0 1052.9 1331.2" xmlns="http://www.w3.org/2000/svg">
 <g fill="none">
  <rect x="-35.796" y="29.934" width="1173.7" height="874.33" stroke-width="10.24"/>
  <rect x="-45.774" y="38.665" width="576.23" height="168.38" stroke-width="10.24"/>
  <rect x="1.7764e-15" width="1052.9" height="1331.2" stroke-width="13.289"/>
 </g>
 <g transform="translate(11.862 154.35)">
  <path d="m602.6 59.687c0-25.575-17.513-46.315-39.106-46.315h-97.781c-21.599 0-39.104 20.74-39.104 46.315l-39.113 83.372c0 25.571 17.51 46.312 39.113 46.312h175.99c21.603 0 39.111-20.741 39.111-46.312zm298.62 134.08-69.135-69.143c-15.274-15.271-42.318-12.985-60.405 5.099l-86.607 31.292c-18.088 18.087-20.369 45.135-5.091 60.41l124.45 124.45c15.271 15.267 42.317 12.993 60.406-5.098l31.292-86.607c18.087-18.085 20.365-45.132 5.09-60.403zm64.945 229.48-83.368-39.111c-25.579 0-46.315 17.513-46.315 39.111v176c0 21.602 20.736 39.114 46.315 39.114l83.368-39.114c25.574 0 46.315-17.51 46.315-39.111v-97.77c1e-3 -21.602-20.741-39.115-46.315-39.115zm-70.035 345.09-31.292-86.611c-18.088-18.092-45.136-20.365-60.406-5.099l-124.45 124.45c-15.277 15.274-12.997 42.317 5.091 60.41l86.607 31.292c18.087 18.083 45.131 20.369 60.405 5.095l69.135-69.144c15.275-15.274 12.997-42.313-5.09-60.396zm-293.53 64.798h-175.99c-21.604 0-39.113 20.74-39.113 46.313l39.113 83.368c0 25.578 17.505 46.314 39.104 46.314h97.781c21.595 0 39.106-20.736 39.106-46.314l39.111-83.368c1e-3 -25.573-17.509-46.313-39.11-46.313zm-253.38-32.055-124.45-124.45c-15.276-15.268-42.319-12.993-60.407 5.099l-31.294 86.611c-18.088 18.083-20.365 45.122-5.095 60.397l69.141 69.143c15.272 15.274 42.313 12.988 60.403-5.095l86.607-31.292c18.088-18.093 20.368-45.135 5.091-60.41zm-202.82-416.94-83.366 39.111c-25.583 0-46.315 17.513-46.315 39.115v97.77c0 21.603 20.732 39.111 46.315 39.111l83.366 39.114c25.579 0 46.315-17.514 46.315-39.114v-176c1e-3 -21.598-20.736-39.111-46.315-39.111zm197.72-223.12-86.607-31.292c-18.089-18.083-45.131-20.369-60.403-5.099l-69.141 69.143c-15.271 15.271-12.993 42.318 5.095 60.402l31.294 86.607c18.087 18.091 45.131 20.365 60.407 5.098l124.45-124.45c15.276-15.275 12.996-42.322-5.091-60.409z" fill="#c45fa0"/>
  <path d="m790.52 523.42c-1.304 151.43-124.43 274.56-275.86 275.86-73.322 0.631-142.88-29.461-195.06-80.795-52.501-51.653-80.167-122.14-80.795-195.06-0.565-65.825-102.69-65.881-102.12 0 1.785 207.09 170.88 376.2 377.98 377.98 207.12 1.783 376.22-173.58 377.98-377.98 0.567-65.879-101.56-65.823-102.13 2e-3z" fill="#4a5699"/>
  <path d="m238.81 505.59c1.306-151.42 124.43-274.55 275.85-275.86 73.323-0.632 142.89 29.461 195.06 80.795 52.499 51.655 80.165 122.14 80.795 195.06 0.567 65.823 102.69 65.879 102.13 0-1.783-207.09-170.89-376.2-377.98-377.98-207.11-1.781-376.22 173.58-377.98 377.98-0.57 65.88 101.56 65.823 102.12 0z" fill="#e5594f"/>
  <path d="m590.09 516.45c-0.921 42.171-34.168 75.409-76.339 76.331-42.184 0.921-75.438-35.545-76.331-76.331-0.922-42.191 35.548-75.443 76.331-76.335 42.191-0.924 75.445 35.547 76.339 76.335 1.439 65.755 103.56 65.895 102.13 0-2.158-98.635-79.829-176.3-178.47-178.46-98.62-2.156-176.37 83.087-178.46 178.46-2.155 98.619 83.086 176.37 178.46 178.46 98.619 2.158 176.38-83.081 178.47-178.46 1.439-65.895-100.69-65.755-102.13 0z" fill="#f39a2b"/>
 </g>
</svg>
