<svg width="80.508" height="150" preserveAspectRatio="xMidYMid" version="1.1" viewBox="217.8 17 80.508 150" xmlns="http://www.w3.org/2000/svg">
 <defs>
  <linearGradient id="editing-gradient-gradient" x1=".50128" x2="39.526" y1="-19.291" y2="-19.291" gradientTransform="scale(.81909 1.2209)" gradientUnits="userSpaceOnUse">
   <stop stop-color="#f0f" offset="0"/>
   <stop stop-color="#0ff" offset="1"/>
  </linearGradient>
 </defs>
 <g transform="matrix(2.5187,0,0,2.5187,-372.52,-92.58)">
  <g transform="translate(233.97,98.822)">
   <path d="m30.14-39.04q-0.06 0.77-0.28 1.82-0.23 1.06-0.55 1.99t-0.64 1.57-0.51 0.51q-0.06 0-0.06-0.32t0-0.74q0-0.41 0.06-0.8 0.06-0.38 0.06-0.57 0.2-1.03 0.26-1.92 0.06-0.9 0.19-1.86 0.13-1.22 0.16-2.3 0.03-1.09-0.16-2.24 0-0.13-0.06-0.32-0.07-0.2 0.06-0.2 0.19 0 0.45 0.29t0.32 0.42q0.38 0.77 0.61 1.79 0.22 1.02 0.09 2.88zm0.84-4.48q1.08 2.56 1.31 5.09 0.22 2.53-0.13 5.05-0.35 2.53-1.22 5.03-0.86 2.49-1.95 4.86-1.47 3.2-3.1 6.27-1.63 3.08-3.17 6.02t-2.85 5.73q-1.31 2.78-2.08 5.47-0.13 0.32-0.29 0.26-0.16-0.07-0.16-0.26-0.12-3.07 0.9-6.18 1.02-3.1 2.59-6.24 1.57-3.13 3.39-6.3 1.83-3.17 3.3-6.43 0.96-2.05 1.73-4.29t1.25-4.61 0.57-4.7q0.1-2.34-0.35-4.58-0.13-0.57 0-0.51 0.06 0 0.26 0.32zm-20.8 25.02q0 0.2-0.04 0.8-0.03 0.61-0.22 0.61-0.13 0.07-0.32-0.48-0.19-0.54-0.32-0.86-0.26-0.83-0.58-2.02-0.32-1.18-0.6-2.43-0.29-1.25-0.52-2.46-0.22-1.22-0.28-2.12-0.07-0.44-0.26-1.76-0.19-1.31-0.51-3.1t-0.74-3.84q-0.41-2.05-0.89-3.94-0.48-1.88-1-3.39-0.51-1.5-1.02-2.21-0.32-0.44-0.19-0.57t0.32 0.03 0.32 0.29q1.02 0.77 1.95 2.17 0.93 1.41 1.7 3.01 0.76 1.6 1.28 3.3 0.51 1.69 0.7 3.04 0.58 3.77 0.83 8 0.26 4.22 0.39 7.93zm4.03 9.03q-1.28-4.29-2.05-8.83-0.77-4.55-1.34-9.16-0.45-3.39-1.03-6.78-0.57-3.39-1.79-7.04-0.13-0.32-0.13-0.35t0.13-0.1q0.13 0 0.45 0.32 1.34 1.35 2.27 4.16 0.93 2.82 1.6 5.99 0.67 3.16 1.12 6.14t0.77 4.77q0.32 1.47 0.54 3.01 0.23 1.53 0.35 3.07 0.45-1.73 1.22-3.55 0.77-1.83 1.57-3.56 0.8-1.72 1.6-3.23 0.8-1.5 1.31-2.59 1.34-2.88 3.07-5.79t3.2-4.9q0.58-0.77 0.64-0.77 0.13 0.13 0.03 0.42-0.09 0.29-0.22 0.61-1.28 4.61-3.49 8.96t-4.45 8.77q-1.28 2.43-2.56 4.92-1.28 2.5-1.92 5.57-0.12 0.71-0.35 0.87-0.22 0.16-0.54-0.93zm1.98 9.47q0.19 0.13 0.1 0.16-0.1 0.03-0.29-0.1-2.5-1.15-4.29-3.16-1.79-2.02-3.04-4.52-1.25-2.49-2.01-5.31-0.77-2.81-1.28-5.57-0.71-3.84-1.09-7.68-0.39-3.84-0.87-7.52t-1.12-7.04-1.79-6.17q-0.06-0.13-0.09-0.23-0.04-0.09 0.09-0.22 0.07-0.06 0.19 0.13 0.13 0.19 0.2 0.32 1.98 2.69 2.97 6.11t1.51 7.23q0.51 3.81 0.86 7.81t1.06 7.78q0.44 2.43 1.21 4.96 0.77 2.52 1.86 4.92t2.53 4.48 3.29 3.62zm-0.32-1.6q-0.38-0.38-0.99-1.02t-1.12-1.35q-0.38-0.64-0.83-1.69-0.45-1.06-0.8-2.08-0.35-1.03-0.51-1.83t0.03-0.86q0.06 0 0.29 0.29 0.22 0.28 0.41 0.67 0.19 0.38 0.39 0.73 0.19 0.36 0.32 0.48 0.51 0.9 0.89 1.64 0.39 0.73 0.71 1.56 0.38 0.84 0.8 1.44 0.41 0.61 0.48 0.55 0.06 0 0.03-0.35-0.03-0.36-0.07-0.8-0.03-0.45-0.06-0.87-0.03-0.41-0.03-0.61-0.13-2.43 0.41-4.35 0.55-1.92 1.25-3.52 1.47-3.26 3.46-6.53 1.98-3.26 4.03-6.14 0.13-0.13 0.51-0.58 0.39-0.44 0.51-0.38 0.2 0.06 0.04 0.61-0.16 0.54-0.23 0.73-0.25 0.77-0.67 1.8-0.42 1.02-0.86 2.14-0.45 1.12-0.93 2.14-0.48 1.03-0.87 1.73-0.19 0.39-0.7 1.47-0.51 1.09-1.15 2.66t-1.35 3.36q-0.7 1.79-1.31 3.49-0.61 1.69-0.99 3.1t-0.38 2.24q0 0.45-0.2 0.45-0.19 0-0.51-0.32z" fill="url(#editing-gradient-gradient)"/>
  </g>
 </g>
</svg>
