<svg width="100" height="130" version="1.1" viewBox="0 0 1e3 1300" xmlns="http://www.w3.org/2000/svg">
 <g fill="none">
  <rect x="-35.796" y="29.934" width="1173.7" height="874.33" stroke-width="10.24"/>
  <rect x="-45.774" y="38.665" width="576.23" height="168.38" stroke-width="10.24"/>
  <rect x="1.7764e-15" width="1052.9" height="1331.2" stroke-width="13.289"/>
 </g>
 <g stroke-width=".97791">
  <path d="m587.19 213.02c0-25.01-17.126-45.292-38.242-45.292h-95.621c-21.122 0-38.24 20.282-38.24 45.292l-38.249 81.53c0 25.006 17.123 45.289 38.249 45.289h172.1c21.126 0 38.247-20.283 38.247-45.289zm292.02 131.12-67.608-67.616c-14.937-14.934-41.383-12.698-59.071 4.9864l-84.694 30.601c-17.688 17.687-19.919 44.138-4.9785 59.076l121.7 121.7c14.934 14.93 41.382 12.706 59.072-4.9854l30.601-84.694c17.687-17.686 19.915-44.135 4.9776-59.069zm63.51 224.41-81.526-38.247c-25.014 0-45.292 17.126-45.292 38.247v172.11c0 21.125 20.278 38.25 45.292 38.25l81.526-38.25c25.009 0 45.292-17.123 45.292-38.247v-95.61c9.7e-4 -21.125-20.283-38.251-45.292-38.251zm-68.488 337.47-30.601-84.698c-17.688-17.692-44.139-19.915-59.072-4.9864l-121.7 121.7c-14.94 14.937-12.71 41.382 4.9785 59.076l84.694 30.601c17.687 17.684 44.134 19.919 59.071 4.9825l67.608-67.617c14.938-14.937 12.71-41.378-4.9776-59.062zm-287.05 63.367h-172.1c-21.127 0-38.249 20.282-38.249 45.29l38.249 81.526c0 25.013 17.118 45.291 38.24 45.291h95.621c21.118 0 38.242-20.278 38.242-45.291l38.247-81.526c9.8e-4 -25.008-17.122-45.29-38.246-45.29zm-247.78-31.347-121.7-121.7c-14.939-14.931-41.384-12.706-59.073 4.9864l-30.603 84.698c-17.688 17.684-19.915 44.125-4.9825 59.063l67.614 67.616c14.935 14.937 41.378 12.701 59.069-4.9824l84.694-30.601c17.688-17.693 19.918-44.138 4.9785-59.076zm-198.34-407.73-81.524 38.247c-25.018 0-45.292 17.126-45.292 38.251v95.61c0 21.126 20.274 38.247 45.292 38.247l81.524 38.25c25.014 0 45.292-17.127 45.292-38.25v-172.11c9.7e-4 -21.121-20.278-38.247-45.292-38.247zm193.35-218.19-84.694-30.601c-17.689-17.684-44.134-19.919-59.069-4.9864l-67.614 67.616c-14.934 14.934-12.706 41.383 4.9825 59.068l30.603 84.694c17.687 17.691 44.134 19.915 59.073 4.9854l121.7-121.7c14.939-14.938 12.709-41.387-4.9785-59.075z" fill="#2c5aa0"/>
  <path d="m770.96 666.51c-1.2752 148.08-121.68 268.49-269.77 269.77-71.702 0.61707-139.72-28.81-190.75-79.01-51.341-50.512-78.396-119.44-79.01-190.75-0.55252-64.371-100.42-64.426-99.864 0 1.7456 202.52 167.11 367.89 369.63 369.63 202.54 1.7436 367.91-169.75 369.63-369.63 0.55448-64.424-99.317-64.369-99.874 2e-3z" fill="#5f8dd3"/>
  <path d="m231.44 649.07c1.2772-148.08 121.68-268.49 269.76-269.77 71.703-0.61803 139.73 28.81 190.75 79.01 51.339 50.514 78.394 119.44 79.01 190.75 0.55448 64.369 100.42 64.424 99.874 0-1.7436-202.52-167.12-367.89-369.63-369.63-202.53-1.7417-367.91 169.75-369.63 369.63-0.55741 64.425 99.317 64.369 99.864 0z" fill="#e5594f"/>
  <path d="m574.96 659.69c-0.90065 41.239-33.413 73.743-74.653 74.645-41.252 0.90065-73.772-34.76-74.645-74.645-0.90163-41.259 34.763-73.776 74.645-74.649 41.259-0.90359 73.778 34.762 74.653 74.649 1.4072 64.302 101.27 64.439 99.874 0-2.1103-96.456-78.066-172.41-174.53-174.52-96.441-2.1084-172.47 81.252-174.52 174.52-2.1074 96.441 81.251 172.47 174.52 174.52 96.441 2.1103 172.48-81.246 174.53-174.52 1.4072-64.439-98.466-64.302-99.874 0z" fill="#f39a2b"/>
 </g>
</svg>
